<svg width="369" height="286" viewBox="0 0 369 286" fill="none" xmlns="http://www.w3.org/2000/svg">
<g clip-path="url(#clip0_3_272)">
<path d="M164.147 65.3052C149 65.317 133.958 62.7908 119.645 57.8316C100.456 51.1942 84.7368 42.0392 72.9231 30.6208C50.5762 9.02156 32.255 5.76646 20.8229 6.83828C8.44776 7.99907 1.24448 14.3389 1.1732 14.4029L0.680908 13.8538C0.753625 13.7884 8.10541 7.30469 20.7063 6.10843C28.0957 5.40738 35.8231 6.62886 43.6746 9.74008C53.4657 13.6199 63.4787 20.4667 73.4354 30.0903C85.1714 41.4336 100.799 50.5326 119.885 57.1343C154.923 69.2536 194.412 66.3194 228.226 49.0837C239.422 43.3767 250.488 39.4812 261.115 37.5056C274.516 35.0136 287.225 35.592 298.892 39.2235C324.53 47.2034 342.042 46.7802 352.218 45.0208C363.198 43.1222 368.179 39.3226 368.228 39.2844L368.681 39.8666C368.475 40.027 363.503 43.8179 352.343 45.7476C342.087 47.5214 324.45 47.951 298.673 39.9276C272.574 31.805 246.14 40.7803 228.561 49.7407C211.848 58.305 193.598 63.4558 174.875 64.8928C171.286 65.1676 167.71 65.3051 164.147 65.3052Z" fill="#3F3D56"/>
<path d="M162.658 74.4578C166.785 74.4578 170.13 71.1113 170.13 66.9831C170.13 62.8549 166.785 59.5083 162.658 59.5083C158.532 59.5083 155.187 62.8549 155.187 66.9831C155.187 71.1113 158.532 74.4578 162.658 74.4578Z" fill="#EEB310"/>
<path d="M278.409 44.5849C282.536 44.5849 285.881 41.2383 285.881 37.1101C285.881 32.9819 282.536 29.6354 278.409 29.6354C274.283 29.6354 270.938 32.9819 270.938 37.1101C270.938 41.2383 274.283 44.5849 278.409 44.5849Z" fill="#EEB310"/>
<path d="M37.6918 15.4495C41.8181 15.4495 45.1632 12.103 45.1632 7.97477C45.1632 3.84657 41.8181 0.5 37.6918 0.5C33.5655 0.5 30.2205 3.84657 30.2205 7.97477C30.2205 12.103 33.5655 15.4495 37.6918 15.4495Z" fill="#EEB310"/>
<path d="M216.237 179.178V251.399H227.587V185.537H272.989V251.399H284.339V106.957H272.989C269.227 106.957 263.454 126.554 263.454 146.247C263.454 161.09 265.187 173.811 267.651 179.178H216.237ZM272.989 179.178H272.878C272.915 179.097 272.952 179.012 272.989 178.928V179.178Z" fill="#3F3D56"/>
<path d="M258.298 71.2097C248.981 71.2097 241.429 79.5955 241.429 89.9398V103.082H245.469L247.808 98.2129L247.223 103.082H273.192L275.319 98.6556L274.787 103.082H277.711V92.7631C277.711 80.8595 269.019 71.2097 258.298 71.2097Z" fill="#2F2E41"/>
<path d="M238.969 157.076L228.611 161.48L192.618 190.754C191.294 192.382 190.483 194.365 190.287 196.454C190.028 199.822 179.153 217.438 183.037 219.769C186.921 222.101 200.904 229.096 201.681 224.433C202.458 219.769 206.601 199.822 206.601 199.822L241.299 168.734L238.969 157.076Z" fill="#2F2E41"/>
<path d="M198.315 220.546L193.913 233.5C193.913 233.5 198.574 238.422 196.243 242.567V256.815H192.618L191.582 249.302C191.582 249.302 187.453 256.72 185.367 256.815C180.995 257.014 172.338 258.57 172.079 256.238C171.82 253.907 178.635 251.634 178.635 251.634L185.885 231.686L188.993 219.51L198.315 220.546Z" fill="#2F2E41"/>
<path d="M265.899 153.708C265.899 153.708 268.23 176.506 261.497 180.651C254.765 184.796 224.986 198.008 224.986 198.008C224.986 198.008 237.674 209.925 235.085 212.775C232.495 215.624 220.843 223.396 219.289 221.842C217.736 220.287 200.386 201.635 202.458 195.677C204.529 189.718 233.272 170.288 233.272 170.288L236.639 158.112L237.674 148.268L248.55 141.273L265.899 153.708Z" fill="#2F2E41"/>
<path d="M254.036 100.63C259.998 100.63 264.831 95.7949 264.831 89.8303C264.831 83.8657 259.998 79.0304 254.036 79.0304C248.074 79.0304 243.241 83.8657 243.241 89.8303C243.241 95.7949 248.074 100.63 254.036 100.63Z" fill="#FFB9B9"/>
<path d="M262.403 94.2537C262.403 94.2537 261.886 104.098 269.913 107.207C277.94 110.316 249.974 130.522 249.974 130.522V107.984C249.974 107.984 253.599 104.098 249.974 98.1396L262.403 94.2537Z" fill="#FFB9B9"/>
<path d="M279.623 140.496L277.551 150.6L271.337 185.314C271.337 185.314 276.516 200.081 269.524 199.822C262.533 199.563 265.899 183.76 265.899 183.76L269.524 155.004V143.864L279.623 140.496Z" fill="#FFB9B9"/>
<path d="M235.085 135.574L232.754 144.641L222.137 170.288C222.137 170.288 214.887 182.464 220.843 182.205C226.798 181.946 226.798 170.288 226.798 170.288L238.969 149.563V137.906L235.085 135.574Z" fill="#FFB9B9"/>
<path d="M233.272 211.22L241.817 219.251C241.817 219.251 247.773 217.956 250.103 224.951C252.434 231.945 253.988 236.349 253.988 236.349L250.88 238.163L246.996 232.723C246.996 232.723 244.666 242.567 242.335 243.344C240.005 244.121 228.352 249.303 229.388 243.344L235.085 235.054C235.085 235.054 235.861 225.728 233.531 224.951C231.201 224.173 224.986 216.402 224.986 216.402L233.272 211.22Z" fill="#2F2E41"/>
<path d="M266.31 161.739C266.31 161.739 241.969 152.931 240.415 153.708C239.259 154.22 238.027 154.539 236.768 154.655L236.79 151.118C236.79 151.118 244.817 148.268 249.219 150.082C253.622 151.895 267.087 159.926 267.087 159.926L266.31 161.739Z" fill="#3F3D56"/>
<path d="M251.528 125.341C251.528 125.341 258.519 117.31 260.591 112.388C261.902 109.404 264.307 107.037 267.312 105.776C267.312 105.776 282.86 109.279 282.601 115.497C282.342 121.714 272.761 131.3 272.761 131.3C272.761 131.3 274.056 165.755 267.065 165.237C265.557 163.436 264.492 161.307 263.957 159.019C263.18 155.392 239.099 151.506 239.099 151.506C239.099 151.506 237.027 155.133 236.768 153.579C236.509 152.025 238.84 113.942 238.84 113.942L251.188 105.776L251.528 125.341Z" fill="#D0CDE1"/>
<path d="M280.606 112.994L280.78 113.091C281.333 113.402 281.794 113.855 282.114 114.403C282.435 114.951 282.604 115.574 282.604 116.209L282.601 135.435C282.603 135.957 282.719 136.473 282.94 136.947C283.161 137.42 283.483 137.84 283.882 138.176C284.88 139.025 285.805 140.248 283.896 140.885C280.788 141.921 268.618 147.102 268.359 145.289C268.1 143.476 267.582 141.403 268.359 141.403C268.967 141.403 272.591 122.826 275.502 114.883C275.68 114.397 275.961 113.955 276.327 113.588C276.692 113.222 277.133 112.939 277.618 112.759C278.103 112.579 278.622 112.507 279.138 112.548C279.654 112.588 280.155 112.741 280.606 112.994Z" fill="#D0CDE1"/>
<path d="M242.335 113.036L238.71 114.072L234.567 131.947C234.567 131.947 229.647 132.983 231.201 134.797C232.754 136.61 239.228 141.273 239.228 141.273L242.335 113.036Z" fill="#D0CDE1"/>
<path d="M263.094 76.3693C262.282 75.2787 261.23 74.3899 260.02 73.7718C258.809 73.1537 257.472 72.823 256.113 72.8053H255.782C249.396 72.8053 244.22 78.5863 244.22 85.7176L246.359 85.7176L246.705 83.0861L247.212 85.7176H259.902L260.965 83.4913L260.699 85.7176H263.196C264.361 91.5058 262.687 97.2941 258.174 103.082H262.427L264.554 98.6299L264.022 103.082H272.129L273.724 92.8416C273.724 85.1722 269.27 78.6686 263.094 76.3693Z" fill="#2F2E41"/>
<path d="M46.2201 195.865C48.9442 189.931 50.86 175.866 50.86 159.454C50.86 137.68 44.4769 116.012 40.3183 116.012H27.7686V275.717H40.3183V202.896H90.5172V275.717H103.067V195.865H46.2201ZM40.3183 195.588C40.3589 195.681 40.3993 195.775 40.4403 195.865H40.3183V195.588Z" fill="#3F3D56"/>
<path d="M98.5285 166.729C98.5285 166.729 113.642 172.999 108.85 176.687C104.058 180.375 94.1049 172.261 94.4736 171.155C94.8422 170.049 92.999 167.467 92.999 167.467L98.5285 166.729Z" fill="#9F616A"/>
<path d="M85.2577 117.31L90.0499 121.736L91.1558 134.644L94.8422 148.289C94.8422 148.289 101.109 161.197 100.003 163.779C98.8971 166.361 101.109 167.098 101.109 167.098L92.6304 170.417C92.6304 170.417 83.4146 160.091 83.4146 157.878C83.4146 155.665 85.2577 117.31 85.2577 117.31Z" fill="#575A88"/>
<path opacity="0.1" d="M85.2577 117.31L90.0499 121.736L91.1558 134.644L94.8422 148.289C94.8422 148.289 101.109 161.197 100.003 163.779C98.8971 166.361 101.109 167.098 101.109 167.098L92.6304 170.417C92.6304 170.417 83.4146 160.091 83.4146 157.878C83.4146 155.665 85.2577 117.31 85.2577 117.31Z" fill="black"/>
<path d="M130.599 250.078C130.599 250.078 128.756 258.561 128.388 259.299C128.019 260.036 135.392 262.618 135.392 262.618L144.239 256.348C144.239 256.348 140.553 248.234 140.553 246.759L130.599 250.078Z" fill="#575A88"/>
<path d="M82.3085 167.467L84.889 170.417C84.889 170.417 138.341 177.056 139.447 187.382C140.553 197.709 148.294 246.39 143.87 247.866C139.447 249.341 128.019 254.873 128.019 251.922C128.019 248.972 120.646 208.404 122.121 201.028C122.121 201.028 58.3474 192.914 56.8728 183.694C55.3983 174.474 58.3474 170.417 58.3474 170.417L82.3085 167.467Z" fill="#2F2E41"/>
<path opacity="0.1" d="M82.3085 167.467L84.889 170.417C84.889 170.417 138.341 177.056 139.447 187.382C140.553 197.709 148.294 246.39 143.87 247.866C139.447 249.341 128.019 254.873 128.019 251.922C128.019 248.972 120.646 208.404 122.121 201.028C122.121 201.028 58.3474 192.914 56.8728 183.694C55.3983 174.474 58.3474 170.417 58.3474 170.417L82.3085 167.467Z" fill="black"/>
<path d="M129.862 258.561C129.862 258.561 128.388 255.242 127.65 256.348C126.913 257.455 124.333 270.363 126.913 270.363C129.493 270.363 153.086 276.263 156.404 275.526C159.721 274.788 165.988 275.895 165.251 272.207C164.514 268.519 160.827 268.15 160.827 268.15C160.827 268.15 147.188 260.036 146.451 255.979C145.713 251.923 141.658 254.135 141.658 254.135V256.717C141.658 256.717 133.917 262.618 129.862 258.561Z" fill="#2F2E41"/>
<path d="M59.8218 89.281C59.8218 89.281 62.4023 101.82 56.8728 102.927C51.3433 104.033 63.8768 111.409 63.8768 111.409L71.9867 115.835L77.8849 109.934C77.8849 109.934 72.5397 99.0542 76.5947 90.9406C80.6496 82.8269 59.8218 89.281 59.8218 89.281Z" fill="#9F616A"/>
<path d="M77.8849 109.934L71.9867 115.835L63.8768 111.409C63.8768 111.409 51.3433 104.033 56.8728 102.927C60.4301 102.215 60.6291 96.7713 60.3232 92.98C60.2233 91.7388 60.056 90.504 59.8218 89.281C59.8218 89.281 80.6496 82.8269 76.5947 90.9406C75.9785 92.1935 75.5512 93.5307 75.3266 94.9089C74.0842 102.2 77.8849 109.934 77.8849 109.934Z" fill="#9F616A"/>
<path d="M98.5283 260.774V269.256H112.536L113.642 265.937L112.168 257.086L98.5283 260.774Z" fill="#575A88"/>
<path d="M40.6531 174.843C40.6531 174.843 40.6531 196.602 49.5003 197.34C58.3475 198.077 90.0499 202.134 90.0499 202.134C90.0499 202.134 91.8931 238.277 95.2108 250.079C98.5285 261.88 95.5794 262.618 98.5285 263.355C101.478 264.093 114.011 261.511 113.642 258.93C113.274 256.348 111.799 191.07 111.799 191.07C111.799 191.07 115.117 177.056 70.881 170.417L40.6531 174.843Z" fill="#2F2E41"/>
<path d="M99.6344 266.675C99.6344 266.675 97.4226 261.88 97.054 263.355C96.6853 264.831 92.2617 277.739 96.6853 278.845C101.109 279.951 115.117 285.852 124.333 285.483C133.549 285.115 134.655 284.746 134.655 284.746C134.655 284.746 137.235 281.058 133.917 278.845C130.6 276.632 116.96 263.724 116.223 262.249C115.486 260.774 109.956 259.667 109.956 262.249C109.956 264.831 102.215 269.994 99.6344 266.675Z" fill="#2F2E41"/>
<path opacity="0.1" d="M76.5948 90.9406C75.9787 92.1935 75.5514 93.5307 75.3268 94.9089C73.491 96.019 72.2634 95.735 69.9594 95.735C66.5422 95.735 65.1635 91.3647 62.9554 89.0966C62.7821 86.9907 59.822 89.281 59.822 89.281C59.822 89.281 80.6498 82.8269 76.5948 90.9406Z" fill="black"/>
<path d="M69.0377 95.5506C75.7562 95.5506 81.2026 90.1017 81.2026 83.3802C81.2026 76.6586 75.7562 71.2097 69.0377 71.2097C62.3192 71.2097 56.8728 76.6586 56.8728 83.3802C56.8728 90.1017 62.3192 95.5506 69.0377 95.5506Z" fill="#9F616A"/>
<path d="M90.0499 121.735C90.0499 121.735 88.2067 135.012 87.1008 139.807C85.9949 144.601 84.5204 166.729 83.7831 169.68C83.0458 172.63 78.6222 173.368 69.7751 172.261C69.2197 172.191 68.6611 172.149 68.1015 172.136C62.6531 171.963 56.4195 174.002 50.6504 175.603C47.3327 176.525 44.1661 177.299 41.3903 177.425C37.1879 177.616 35.9566 172.955 36.1004 167.909C36.2368 163.215 37.5676 158.18 38.8099 156.403C41.0475 153.202 38.8467 124.461 39.6725 114.983V114.979C39.7978 113.533 39.9932 112.538 40.2844 112.147C42.4962 109.196 56.8729 101.82 58.4838 102.119C60.0911 102.418 73.83 111.04 73.83 111.04C77.1477 111.04 77.0408 107.441 77.0408 107.441C77.0408 107.441 79.3595 111.778 83.7831 112.884C88.2067 113.991 90.0499 121.735 90.0499 121.735Z" fill="#575A88"/>
<path d="M65.4078 169.548C65.4078 169.548 89.1537 170.304 84.9939 173.127C80.8341 175.949 62.4025 178.531 62.0338 174.843C61.6652 171.155 65.4078 169.548 65.4078 169.548Z" fill="#9F616A"/>
<path opacity="0.1" d="M68.1014 172.136C68.1788 173.552 64.3709 176.742 63.1396 178.9C62.4576 180.095 57.1788 178.52 50.6503 175.603C45.6405 173.353 40.7804 170.783 36.1003 167.909C36.2367 163.215 37.5675 158.18 38.8098 156.403C41.0474 153.202 38.8467 124.461 39.6724 114.983V114.979C39.8693 114.879 40.0739 114.795 40.2843 114.728H44.7079C59.8219 121.736 42.4961 151.977 42.4961 151.977C42.4961 151.977 65.3514 170.786 67.5632 171.524C67.7082 171.551 67.84 171.626 67.9375 171.737C68.035 171.848 68.0926 171.989 68.1014 172.136Z" fill="black"/>
<path d="M44.708 112.516H40.2844C40.2844 112.516 36.2294 113.622 32.9117 120.998C29.594 128.374 17.4291 151.24 28.1195 160.091C38.8099 168.942 61.6651 179.269 63.1397 176.687C64.6142 174.105 69.7751 170.049 67.5633 169.311C65.3515 168.573 42.4962 149.764 42.4962 149.764C42.4962 149.764 59.822 119.523 44.708 112.516Z" fill="#575A88"/>
<path d="M67.1662 77.7169C67.1662 77.7169 67.7 70.3234 74.2859 73.3381C80.8718 76.3527 80.442 68.0433 78.4518 66.5749C76.4616 65.1066 76.5246 64.7432 69.2456 65.7256C61.9666 66.7081 47.8348 68.3726 52.4042 83.0152C56.9736 97.6578 61.1121 93.891 61.1121 93.891C61.1121 93.891 57.4799 80.7146 61.1601 83.2249L64.8404 85.7352L66.7824 85.3237L67.1662 77.7169Z" fill="#2F2E41"/>
<path d="M338.915 184.18C338.915 177.523 289.47 172.127 228.477 172.127C167.484 172.127 118.04 177.523 118.04 184.18C118.04 186.76 125.471 189.151 138.119 191.111V273.575H144.143V191.961C164.401 194.574 194.661 196.233 228.477 196.233C262.573 196.233 293.055 194.547 313.313 191.897V273.575H319.337V191.032C331.678 189.086 338.915 186.726 338.915 184.18Z" fill="#3F3D56"/>
<path d="M242.313 184.432C254.732 184.432 264.799 181.955 264.799 178.9C264.799 175.845 254.732 173.368 242.313 173.368C229.894 173.368 219.826 175.845 219.826 178.9C219.826 181.955 229.894 184.432 242.313 184.432Z" fill="#F2F2F2"/>
<path d="M242.313 183.434C252.493 183.434 260.745 181.404 260.745 178.9C260.745 176.395 252.493 174.365 242.313 174.365C232.133 174.365 223.881 176.395 223.881 178.9C223.881 181.404 232.133 183.434 242.313 183.434Z" fill="#D0CDE1"/>
<path d="M158.633 188.857C171.052 188.857 181.12 186.381 181.12 183.325C181.12 180.27 171.052 177.793 158.633 177.793C146.214 177.793 136.147 180.27 136.147 183.325C136.147 186.381 146.214 188.857 158.633 188.857Z" fill="#F2F2F2"/>
<path d="M158.633 187.86C168.813 187.86 177.065 185.83 177.065 183.325C177.065 180.821 168.813 178.791 158.633 178.791C148.454 178.791 140.202 180.821 140.202 183.325C140.202 185.83 148.454 187.86 158.633 187.86Z" fill="#D0CDE1"/>
<path d="M241.79 178.509C247.71 178.509 252.51 177.751 252.51 176.816C252.51 175.88 247.71 175.122 241.79 175.122C235.869 175.122 231.07 175.88 231.07 176.816C231.07 177.751 235.869 178.509 241.79 178.509Z" fill="#9F616A"/>
<path d="M236.077 176.181C237.947 176.181 239.462 175.359 239.462 174.346C239.462 173.333 237.947 172.512 236.077 172.512C234.208 172.512 232.692 173.333 232.692 174.346C232.692 175.359 234.208 176.181 236.077 176.181Z" fill="#EEB310"/>
<path d="M234.808 176.181C236.677 176.181 238.193 175.359 238.193 174.346C238.193 173.333 236.677 172.512 234.808 172.512C232.938 172.512 231.422 173.333 231.422 174.346C231.422 175.359 232.938 176.181 234.808 176.181Z" fill="#EEB310"/>
<path d="M249.618 176.604C251.488 176.604 253.003 175.783 253.003 174.77C253.003 173.756 251.488 172.935 249.618 172.935C247.749 172.935 246.233 173.756 246.233 174.77C246.233 175.783 247.749 176.604 249.618 176.604Z" fill="#EEB310"/>
<path d="M241.86 176.181C243.73 176.181 245.246 175.359 245.246 174.346C245.246 173.333 243.73 172.512 241.86 172.512C239.991 172.512 238.475 173.333 238.475 174.346C238.475 175.359 239.991 176.181 241.86 176.181Z" fill="#EEB310"/>
<path d="M247.644 176.181C249.513 176.181 251.029 175.359 251.029 174.346C251.029 173.333 249.513 172.512 247.644 172.512C245.774 172.512 244.258 173.333 244.258 174.346C244.258 175.359 245.774 176.181 247.644 176.181Z" fill="#EEB310"/>
<path d="M252.016 173.217C245.898 175.294 239.033 175.294 231.422 173.217V172.931C231.421 170.772 232.25 168.695 233.736 167.129C235.223 165.564 237.255 164.63 239.41 164.521C241.225 164.43 243.043 164.432 244.857 164.528C246.796 164.641 248.619 165.493 249.95 166.908C251.282 168.324 252.021 170.195 252.016 172.139V173.217Z" fill="#3F3D56"/>
<path d="M249.012 180.994C244.491 181.451 239.935 181.451 235.413 180.994C234.341 180.889 233.346 180.388 232.621 179.59C231.897 178.792 231.494 177.753 231.493 176.675H252.933C252.931 177.753 252.529 178.792 251.804 179.59C251.08 180.388 250.085 180.889 249.012 180.994Z" fill="#3F3D56"/>
<path d="M238.898 167.149C238.406 167.354 237.879 167.46 237.346 167.46C236.814 167.46 236.287 167.354 235.795 167.149C236.287 166.944 236.814 166.839 237.346 166.839C237.879 166.839 238.406 166.944 238.898 167.149Z" fill="#D0CDE1"/>
<path d="M242.001 168.419C241.509 168.624 240.982 168.73 240.45 168.73C239.917 168.73 239.39 168.624 238.898 168.419C239.39 168.214 239.917 168.109 240.45 168.109C240.982 168.109 241.509 168.214 242.001 168.419Z" fill="#D0CDE1"/>
<path d="M242.283 166.161C241.792 166.366 241.264 166.472 240.732 166.472C240.199 166.472 239.672 166.366 239.18 166.161C239.672 165.956 240.199 165.851 240.732 165.851C241.264 165.851 241.792 165.956 242.283 166.161Z" fill="#D0CDE1"/>
<path d="M248.067 166.161C247.575 166.366 247.048 166.472 246.515 166.472C245.982 166.472 245.455 166.366 244.963 166.161C245.455 165.956 245.982 165.851 246.515 165.851C247.048 165.851 247.575 165.956 248.067 166.161Z" fill="#D0CDE1"/>
<path d="M246.515 167.432C246.023 167.636 245.496 167.742 244.963 167.742C244.431 167.742 243.903 167.636 243.412 167.432C243.903 167.227 244.431 167.121 244.963 167.121C245.496 167.121 246.023 167.227 246.515 167.432Z" fill="#D0CDE1"/>
<path d="M158.479 182.935C164.399 182.935 169.199 182.177 169.199 181.241C169.199 180.306 164.399 179.548 158.479 179.548C152.558 179.548 147.759 180.306 147.759 181.241C147.759 182.177 152.558 182.935 158.479 182.935Z" fill="#9F616A"/>
<path d="M152.766 180.606C154.636 180.606 156.151 179.785 156.151 178.772C156.151 177.759 154.636 176.937 152.766 176.937C150.896 176.937 149.381 177.759 149.381 178.772C149.381 179.785 150.896 180.606 152.766 180.606Z" fill="#EEB310"/>
<path d="M151.497 180.606C153.366 180.606 154.882 179.785 154.882 178.772C154.882 177.759 153.366 176.937 151.497 176.937C149.627 176.937 148.111 177.759 148.111 178.772C148.111 179.785 149.627 180.606 151.497 180.606Z" fill="#EEB310"/>
<path d="M166.307 181.03C168.177 181.03 169.692 180.208 169.692 179.195C169.692 178.182 168.177 177.361 166.307 177.361C164.438 177.361 162.922 178.182 162.922 179.195C162.922 180.208 164.438 181.03 166.307 181.03Z" fill="#EEB310"/>
<path d="M158.549 180.606C160.419 180.606 161.934 179.785 161.934 178.772C161.934 177.759 160.419 176.937 158.549 176.937C156.679 176.937 155.164 177.759 155.164 178.772C155.164 179.785 156.679 180.606 158.549 180.606Z" fill="#EEB310"/>
<path d="M164.332 180.606C166.202 180.606 167.718 179.785 167.718 178.772C167.718 177.759 166.202 176.937 164.332 176.937C162.463 176.937 160.947 177.759 160.947 178.772C160.947 179.785 162.463 180.606 164.332 180.606Z" fill="#EEB310"/>
<path d="M168.705 177.643C162.587 179.72 155.722 179.72 148.111 177.643V177.357C148.11 175.198 148.939 173.12 150.425 171.555C151.912 169.989 153.944 169.056 156.099 168.947C157.914 168.855 159.732 168.858 161.546 168.954C163.485 169.067 165.308 169.918 166.639 171.334C167.971 172.749 168.71 174.621 168.705 176.565V177.643Z" fill="#3F3D56"/>
<path d="M165.701 185.419C161.18 185.876 156.624 185.876 152.102 185.419C151.03 185.314 150.034 184.814 149.31 184.016C148.585 183.217 148.183 182.178 148.182 181.1H169.622C169.62 182.178 169.218 183.217 168.493 184.016C167.769 184.814 166.774 185.314 165.701 185.419Z" fill="#3F3D56"/>
<path d="M155.587 171.575C155.095 171.78 154.568 171.885 154.035 171.885C153.503 171.885 152.976 171.78 152.484 171.575C152.976 171.37 153.503 171.264 154.035 171.264C154.568 171.264 155.095 171.37 155.587 171.575Z" fill="#D0CDE1"/>
<path d="M158.69 172.845C158.198 173.05 157.671 173.155 157.139 173.155C156.606 173.155 156.079 173.05 155.587 172.845C156.079 172.64 156.606 172.534 157.139 172.534C157.671 172.534 158.198 172.64 158.69 172.845Z" fill="#D0CDE1"/>
<path d="M158.972 170.587C158.481 170.792 157.953 170.898 157.421 170.898C156.888 170.898 156.361 170.792 155.869 170.587C156.361 170.382 156.888 170.277 157.421 170.277C157.953 170.277 158.481 170.382 158.972 170.587Z" fill="#D0CDE1"/>
<path d="M164.756 170.587C164.264 170.792 163.737 170.898 163.204 170.898C162.671 170.898 162.144 170.792 161.652 170.587C162.144 170.382 162.671 170.277 163.204 170.277C163.737 170.277 164.264 170.382 164.756 170.587Z" fill="#D0CDE1"/>
<path d="M163.204 171.857C162.712 172.062 162.185 172.168 161.652 172.168C161.12 172.168 160.592 172.062 160.101 171.857C160.592 171.652 161.12 171.547 161.652 171.547C162.185 171.547 162.712 171.652 163.204 171.857Z" fill="#D0CDE1"/>
<path d="M261.658 177.401L261.709 178.543L261.775 180.025C261.775 180.025 254.974 180.409 253.603 181.858C253.572 181.889 253.542 181.923 253.516 181.959L250.791 181.362L250.785 180.019C250.785 180.019 250.822 179.998 250.895 179.959C250.912 179.95 250.933 179.939 250.954 179.928C254.288 178.295 257.946 177.431 261.658 177.401Z" fill="#EEB310"/>
<path opacity="0.1" d="M261.658 177.401L261.71 178.543C258.693 178.637 252.985 180.435 252.985 180.435L250.896 179.959C254.244 178.304 257.923 177.43 261.658 177.401Z" fill="black"/>
<path opacity="0.1" d="M250.954 179.928L252.985 180.435L253.603 181.858C253.572 181.889 253.542 181.923 253.516 181.959L250.791 181.362L250.785 180.019C250.785 180.019 250.822 179.998 250.895 179.959C250.912 179.95 250.933 179.939 250.954 179.928Z" fill="white"/>
<path d="M179.453 182.195L179.504 183.338L179.57 184.819C179.57 184.819 172.769 185.204 171.398 186.652C171.367 186.684 171.337 186.717 171.311 186.753L168.586 186.156L168.58 184.814C168.58 184.814 168.617 184.793 168.69 184.753C168.707 184.745 168.728 184.733 168.749 184.722C172.083 183.089 175.741 182.226 179.453 182.195Z" fill="#EEB310"/>
<path opacity="0.1" d="M179.453 182.195L179.504 183.338C176.488 183.431 170.78 185.23 170.78 185.23L168.69 184.753C172.039 183.098 175.718 182.224 179.453 182.195Z" fill="black"/>
<path opacity="0.1" d="M168.749 184.722L170.78 185.23L171.398 186.652C171.367 186.684 171.337 186.717 171.311 186.753L168.586 186.156L168.58 184.814C168.58 184.814 168.617 184.793 168.69 184.753C168.707 184.745 168.728 184.733 168.749 184.722Z" fill="white"/>
<path d="M302.624 143.183C302.043 142.603 301.363 142.133 300.616 141.795V127.465C300.616 127.297 300.549 127.136 300.43 127.017C300.311 126.898 300.15 126.832 299.982 126.832H296.436C296.268 126.832 296.107 126.898 295.989 127.017C295.87 127.136 295.803 127.297 295.803 127.465V141.52C294.521 141.946 293.406 142.764 292.615 143.86C291.825 144.955 291.399 146.272 291.398 147.623V178.363C291.398 178.733 291.471 179.099 291.613 179.441C291.754 179.783 291.962 180.093 292.223 180.355C292.485 180.616 292.795 180.824 293.137 180.965C293.478 181.107 293.844 181.18 294.214 181.18H301.81C302.553 181.18 303.266 180.885 303.791 180.359C304.317 179.833 304.612 179.12 304.612 178.376V147.985C304.613 147.093 304.438 146.21 304.097 145.386C303.756 144.562 303.255 143.813 302.624 143.183Z" fill="#3F3D56"/>
<path d="M304.612 152.129H291.398V169.592H304.612V152.129Z" fill="#EEB310"/>
<path d="M300.901 127.811H300.615V127.465C300.615 127.297 300.548 127.136 300.43 127.017C300.311 126.898 300.15 126.832 299.982 126.832H296.436C296.268 126.832 296.107 126.898 295.988 127.017C295.869 127.136 295.803 127.297 295.803 127.465V127.811H295.517V129.28H295.803V136.787H300.615V129.28H300.901V127.811Z" fill="#EEB310"/>
<path d="M196.822 155.622C196.472 154.875 196.196 154.347 196.099 154.165C190.168 155.629 186.21 154.392 185.586 154.173C185.281 154.75 183.376 158.435 182.606 161.969C181.91 165.156 182.314 167.293 183.806 168.32L183.85 168.351L183.86 168.358C185.507 169.443 187.078 170.405 188.529 171.215C188.725 171.324 188.909 171.426 189.082 171.519L189.101 171.529L189.114 171.546C189.313 171.797 189.498 172.058 189.669 172.33C189.99 172.778 190.184 173.305 190.233 173.854V189.684L190.133 189.687C186.349 189.764 184.007 190.405 184.007 190.956C184.007 191.559 186.815 192.232 190.845 192.232C194.874 192.232 197.682 191.559 197.682 190.956C197.682 190.414 195.38 189.775 191.661 189.689L191.561 189.687L191.654 175.044C191.656 174.052 191.887 173.075 192.327 172.187C192.403 172.037 192.483 171.892 192.567 171.755C192.635 171.645 192.706 171.538 192.78 171.437L192.793 171.418L192.814 171.407C193 171.305 193.198 171.195 193.407 171.076L193.432 171.063C194.805 170.287 196.285 169.377 197.83 168.358C199.21 167.447 199.691 165.608 199.258 162.89C198.846 160.299 197.706 157.507 196.822 155.622Z" fill="#D0CDE1"/>
<path d="M197.176 168.026C195.555 169.094 194.218 169.896 193.195 170.473H193.194C191.701 170.371 190.202 170.413 188.718 170.599C187.669 170.013 186.254 169.173 184.514 168.026C184.497 168.015 184.481 168.004 184.464 167.992V167.991C182.868 166.892 182.828 164.565 183.347 162.186C184.669 162.039 186.775 162.103 189.606 163.115C192.958 164.312 196.467 163.635 198.5 163.019C198.834 165.118 198.63 167.066 197.176 168.026Z" fill="#EEB310"/>
<path d="M187.542 161.324C187.795 161.324 188.001 161.119 188.001 160.865C188.001 160.612 187.795 160.406 187.542 160.406C187.288 160.406 187.083 160.612 187.083 160.865C187.083 161.119 187.288 161.324 187.542 161.324Z" fill="#EEB310"/>
<path d="M186.257 165.547C186.51 165.547 186.716 165.342 186.716 165.088C186.716 164.835 186.51 164.629 186.257 164.629C186.004 164.629 185.798 164.835 185.798 165.088C185.798 165.342 186.004 165.547 186.257 165.547Z" fill="white"/>
<path d="M188.643 162.242C188.795 162.242 188.918 162.119 188.918 161.967C188.918 161.815 188.795 161.692 188.643 161.692C188.491 161.692 188.367 161.815 188.367 161.967C188.367 162.119 188.491 162.242 188.643 162.242Z" fill="#EEB310"/>
<path d="M189.744 167.475C189.896 167.475 190.019 167.352 190.019 167.199C190.019 167.047 189.896 166.924 189.744 166.924C189.592 166.924 189.469 167.047 189.469 167.199C189.469 167.352 189.592 167.475 189.744 167.475Z" fill="white"/>
<path d="M187.817 167.75C187.969 167.75 188.092 167.627 188.092 167.475C188.092 167.323 187.969 167.199 187.817 167.199C187.665 167.199 187.542 167.323 187.542 167.475C187.542 167.627 187.665 167.75 187.817 167.75Z" fill="white"/>
<path d="M193.414 158.571C193.566 158.571 193.689 158.447 193.689 158.295C193.689 158.143 193.566 158.02 193.414 158.02C193.262 158.02 193.139 158.143 193.139 158.295C193.139 158.447 193.262 158.571 193.414 158.571Z" fill="#EEB310"/>
<path d="M218.342 140.698C217.992 139.951 217.716 139.423 217.619 139.241C211.688 140.706 207.731 139.468 207.107 139.249C206.801 139.826 204.896 143.512 204.126 147.045C203.43 150.232 203.834 152.369 205.326 153.396L205.37 153.427L205.38 153.434C207.027 154.52 208.598 155.481 210.049 156.292C210.245 156.401 210.429 156.502 210.602 156.595L210.621 156.605L210.634 156.622C210.833 156.873 211.019 157.135 211.189 157.406C211.51 157.854 211.705 158.381 211.753 158.93V174.761L211.653 174.763C207.869 174.84 205.528 175.482 205.528 176.032C205.528 176.635 208.336 177.308 212.365 177.308C216.395 177.308 219.203 176.635 219.203 176.032C219.203 175.49 216.9 174.852 213.181 174.766L213.081 174.763L213.174 160.12C213.177 159.129 213.407 158.151 213.848 157.263C213.923 157.114 214.003 156.968 214.088 156.832C214.155 156.722 214.227 156.614 214.3 156.513L214.314 156.494L214.334 156.483C214.52 156.381 214.718 156.271 214.927 156.152L214.952 156.139C216.325 155.363 217.805 154.453 219.351 153.434C220.73 152.524 221.211 150.684 220.779 147.966C220.367 145.375 219.226 142.584 218.342 140.698Z" fill="#D0CDE1"/>
<path d="M218.696 153.102C217.076 154.17 215.738 154.972 214.715 155.549H214.714C213.221 155.447 211.723 155.489 210.238 155.675C209.189 155.089 207.775 154.249 206.034 153.102C206.017 153.091 206.001 153.08 205.984 153.068V153.067C204.388 151.968 204.348 149.641 204.868 147.262C206.189 147.115 208.296 147.179 211.126 148.191C214.478 149.389 217.987 148.711 220.02 148.095C220.354 150.195 220.15 152.143 218.696 153.102Z" fill="#EEB310"/>
<path d="M209.062 146.401C209.315 146.401 209.521 146.195 209.521 145.942C209.521 145.688 209.315 145.483 209.062 145.483C208.808 145.483 208.603 145.688 208.603 145.942C208.603 146.195 208.808 146.401 209.062 146.401Z" fill="#EEB310"/>
<path d="M207.777 150.623C208.031 150.623 208.236 150.418 208.236 150.164C208.236 149.911 208.031 149.705 207.777 149.705C207.524 149.705 207.319 149.911 207.319 150.164C207.319 150.418 207.524 150.623 207.777 150.623Z" fill="white"/>
<path d="M210.163 147.319C210.315 147.319 210.438 147.195 210.438 147.043C210.438 146.891 210.315 146.768 210.163 146.768C210.011 146.768 209.888 146.891 209.888 147.043C209.888 147.195 210.011 147.319 210.163 147.319Z" fill="#EEB310"/>
<path d="M211.264 152.551C211.416 152.551 211.539 152.428 211.539 152.276C211.539 152.124 211.416 152 211.264 152C211.112 152 210.989 152.124 210.989 152.276C210.989 152.428 211.112 152.551 211.264 152.551Z" fill="white"/>
<path d="M209.337 152.826C209.489 152.826 209.613 152.703 209.613 152.551C209.613 152.399 209.489 152.276 209.337 152.276C209.185 152.276 209.062 152.399 209.062 152.551C209.062 152.703 209.185 152.826 209.337 152.826Z" fill="white"/>
<path d="M214.934 143.647C215.086 143.647 215.21 143.523 215.21 143.371C215.21 143.219 215.086 143.096 214.934 143.096C214.782 143.096 214.659 143.219 214.659 143.371C214.659 143.523 214.782 143.647 214.934 143.647Z" fill="#EEB310"/>
</g>
<defs>
<clipPath id="clip0_3_272">
<rect width="368" height="285" fill="white" transform="translate(0.680908 0.5)"/>
</clipPath>
</defs>
</svg>
