<svg width="25" height="24" viewBox="0 0 25 24" fill="none" xmlns="http://www.w3.org/2000/svg">
<path d="M4.5 13C4.5 11.1144 4.5 10.1716 5.08579 9.58579C5.67157 9 6.61438 9 8.5 9H16.5C18.3856 9 19.3284 9 19.9142 9.58579C20.5 10.1716 20.5 11.1144 20.5 13V15C20.5 17.8284 20.5 19.2426 19.6213 20.1213C18.7426 21 17.3284 21 14.5 21H10.5C7.67157 21 6.25736 21 5.37868 20.1213C4.5 19.2426 4.5 17.8284 4.5 15V13Z" stroke="#313638" stroke-width="2"/>
<path d="M16.5 8V7C16.5 4.79086 14.7091 3 12.5 3V3C10.2909 3 8.5 4.79086 8.5 7V8" stroke="#313638" stroke-width="2" stroke-linecap="round"/>
<circle cx="12.5" cy="15" r="2" fill="#313638"/>
</svg>
